<mxfile host="app.diagrams.net" agent="Mozilla/5.0 (Macintosh; Intel Mac OS X 10_15_7) AppleWebKit/537.36 (KHTML, like Gecko) Chrome/141.0.0.0 Safari/537.36" version="26.0.11">
  <diagram name="第 1 页" id="ej2JMTwUqACkT05rTPGu">
    <mxGraphModel dx="674" dy="503" grid="1" gridSize="10" guides="1" tooltips="1" connect="1" arrows="1" fold="1" page="1" pageScale="1" pageWidth="827" pageHeight="1169" math="0" shadow="0">
      <root>
        <mxCell id="0" />
        <mxCell id="1" parent="0" />
        <mxCell id="GNKil_ehPjm9dJlZcgDg-6" style="edgeStyle=orthogonalEdgeStyle;curved=1;rounded=0;orthogonalLoop=1;jettySize=auto;html=1;exitX=1;exitY=0.5;exitDx=0;exitDy=0;entryX=0;entryY=0.5;entryDx=0;entryDy=0;" edge="1" parent="1" source="GNKil_ehPjm9dJlZcgDg-1" target="GNKil_ehPjm9dJlZcgDg-2">
          <mxGeometry relative="1" as="geometry" />
        </mxCell>
        <mxCell id="GNKil_ehPjm9dJlZcgDg-7" style="edgeStyle=orthogonalEdgeStyle;curved=1;rounded=0;orthogonalLoop=1;jettySize=auto;html=1;exitX=1;exitY=0.5;exitDx=0;exitDy=0;entryX=0;entryY=0.5;entryDx=0;entryDy=0;" edge="1" parent="1" source="GNKil_ehPjm9dJlZcgDg-1" target="GNKil_ehPjm9dJlZcgDg-4">
          <mxGeometry relative="1" as="geometry" />
        </mxCell>
        <mxCell id="GNKil_ehPjm9dJlZcgDg-8" style="edgeStyle=orthogonalEdgeStyle;curved=1;rounded=0;orthogonalLoop=1;jettySize=auto;html=1;exitX=1;exitY=0.5;exitDx=0;exitDy=0;entryX=0;entryY=0.5;entryDx=0;entryDy=0;" edge="1" parent="1" source="GNKil_ehPjm9dJlZcgDg-1" target="GNKil_ehPjm9dJlZcgDg-5">
          <mxGeometry relative="1" as="geometry" />
        </mxCell>
        <mxCell id="GNKil_ehPjm9dJlZcgDg-1" value="tb3_simulation_launch.py" style="rounded=1;whiteSpace=wrap;html=1;" vertex="1" parent="1">
          <mxGeometry x="100" y="270" width="150" height="30" as="geometry" />
        </mxCell>
        <mxCell id="GNKil_ehPjm9dJlZcgDg-2" value="RVIZ" style="rounded=1;whiteSpace=wrap;html=1;" vertex="1" parent="1">
          <mxGeometry x="300" y="190" width="110" height="30" as="geometry" />
        </mxCell>
        <mxCell id="GNKil_ehPjm9dJlZcgDg-4" value="导航节点：bringup_launch.py" style="rounded=1;whiteSpace=wrap;html=1;" vertex="1" parent="1">
          <mxGeometry x="300" y="250" width="110" height="40" as="geometry" />
        </mxCell>
        <mxCell id="GNKil_ehPjm9dJlZcgDg-5" value="Gazebo" style="rounded=1;whiteSpace=wrap;html=1;" vertex="1" parent="1">
          <mxGeometry x="300" y="330" width="110" height="30" as="geometry" />
        </mxCell>
      </root>
    </mxGraphModel>
  </diagram>
</mxfile>
